<svg xmlns="http://www.w3.org/2000/svg" width="200" height="200" class="icon" viewBox="0 0 1024 1024"><path fill="#201512" d="M758 842.8H266.4c-17 0-30.7-13.8-30.7-30.8V213.4c0-17 13.7-30.7 30.7-30.7H758c17 0 30.7 13.7 30.7 30.7V812c0 17-13.7 30.8-30.7 30.8m-460.8-61.5h430V244.1h-430z"/><path fill="#1F1411" d="M327 420.7h73.8v73.7H327zm0 129.6h73.8V624H327zm99.2-126.2H581V442H426.2zm0 43.7h84v17.8h-84zm0 84H581v17.7H426.2zm0 43.6h84v17.8h-84zM327 679.5h73.7v73.8H327zm99 1.5h155v17.8H426zm0 43.6h84v17.8h-84z"/><path fill="#1D120E" d="M330.1 271h364.2v99H330z"/></svg>